<svg width="906" height="317" viewBox="0 0 906 317" fill="none" xmlns="http://www.w3.org/2000/svg">
<path d="M164.961 84.2533C174.987 90.0419 174.987 104.513 164.961 110.302L22.5588 192.518C12.5326 198.307 6.90682e-06 191.071 7.41287e-06 179.494L1.46004e-05 15.0616C1.51065e-05 3.48444 12.5327 -3.75128 22.5588 2.03731L164.961 84.2533Z" fill="url(#paint0_linear_11_245)"/>
<path d="M866.314 265.581C867.671 265.581 868.422 266.241 868.569 267.561C868.679 268.294 868.771 269.027 868.844 269.761C868.917 270.494 868.991 271.227 869.064 271.96C869.064 272.034 869.101 272.254 869.174 272.62C869.247 272.95 869.376 273.115 869.559 273.115C869.742 273.115 869.907 273.005 870.054 272.785C870.237 272.565 870.366 272.4 870.439 272.29C872.639 269.467 875.315 267.432 878.468 266.186C881.621 264.939 884.939 264.316 888.423 264.316C891.282 264.316 893.904 264.921 896.287 266.131C898.707 267.304 900.65 268.991 902.116 271.191C903.583 273.354 904.316 275.939 904.316 278.945C904.316 284.628 904.371 290.329 904.481 296.049C904.628 301.768 904.701 307.469 904.701 313.152C904.701 314.692 903.95 315.462 902.446 315.462H893.812C892.419 315.462 891.667 314.711 891.557 313.207C891.447 311.631 891.411 310.054 891.447 308.478C891.484 306.864 891.484 305.27 891.447 303.693C891.411 300.32 891.392 296.965 891.392 293.629C891.392 290.292 891.392 286.956 891.392 283.62C891.392 281.016 890.641 279.073 889.137 277.79C887.634 276.47 885.636 275.81 883.143 275.81C880.027 275.81 877.46 276.763 875.444 278.67C873.464 280.576 871.979 282.923 870.989 285.709C870.036 288.496 869.559 291.227 869.559 293.904C869.559 297.13 869.541 300.357 869.504 303.583C869.467 306.773 869.431 309.981 869.394 313.207C869.394 314.711 868.642 315.462 867.139 315.462H858.505C857.002 315.462 856.25 314.692 856.25 313.152C856.25 311.099 856.268 309.064 856.305 307.048C856.378 304.995 856.433 302.96 856.47 300.943C856.58 292.364 856.635 283.785 856.635 275.205V267.836C856.635 266.333 857.387 265.581 858.89 265.581H866.314Z" fill="#CE2B2B"/>
<path d="M796.58 290.769C796.58 285.673 797.661 281.126 799.824 277.13C802.024 273.134 805.086 269.981 809.009 267.671C812.932 265.324 817.46 264.151 822.593 264.151C827.652 264.151 832.07 265.306 835.847 267.616C839.623 269.889 842.556 273.005 844.646 276.965C846.773 280.925 847.836 285.379 847.836 290.329C847.836 295.425 846.791 299.953 844.701 303.913C842.611 307.836 839.66 310.916 835.847 313.152C832.07 315.389 827.579 316.507 822.373 316.507C817.203 316.507 812.675 315.444 808.789 313.317C804.939 311.154 801.933 308.148 799.769 304.298C797.643 300.448 796.58 295.939 796.58 290.769ZM822.318 275.26C819.531 275.26 817.203 276.012 815.333 277.515C813.463 278.982 812.052 280.87 811.099 283.18C810.145 285.489 809.669 287.909 809.669 290.439C809.669 292.822 810.164 295.114 811.154 297.314C812.18 299.513 813.628 301.31 815.498 302.703C817.368 304.096 819.586 304.793 822.153 304.793C824.939 304.793 827.249 304.096 829.082 302.703C830.952 301.273 832.345 299.44 833.262 297.204C834.215 294.967 834.692 292.584 834.692 290.054C834.692 287.598 834.215 285.251 833.262 283.015C832.345 280.742 830.97 278.89 829.137 277.46C827.304 275.994 825.031 275.26 822.318 275.26ZM837.112 240.833C837.515 240.833 838.175 240.888 839.091 240.998C840.045 241.108 840.521 241.493 840.521 242.153C840.521 242.629 840.265 243.124 839.751 243.638C839.275 244.114 838.89 244.499 838.596 244.793C836.58 246.626 834.563 248.496 832.547 250.402C830.567 252.272 828.551 254.105 826.497 255.902C826.021 256.305 825.507 256.507 824.958 256.507H821.713C821.236 256.507 820.668 256.433 820.008 256.287C819.385 256.14 819.073 255.755 819.073 255.132C819.073 254.765 819.165 254.399 819.348 254.032C819.531 253.665 819.715 253.354 819.898 253.097L827.652 241.823C828.092 241.163 828.716 240.833 829.522 240.833H837.112Z" fill="#CE2B2B"/>
<path d="M773.592 246.827C773.592 244.811 774.343 243.088 775.846 241.658C777.35 240.191 779.109 239.458 781.126 239.458C783.179 239.458 784.976 240.21 786.516 241.713C788.092 243.179 788.88 244.958 788.88 247.047C788.88 249.064 788.129 250.824 786.626 252.327C785.159 253.794 783.399 254.527 781.346 254.527C779.256 254.527 777.441 253.775 775.901 252.272C774.361 250.732 773.592 248.917 773.592 246.827ZM774.416 279.99V267.836C774.416 266.333 775.168 265.581 776.671 265.581H785.141C786.644 265.581 787.395 266.333 787.395 267.836C787.395 275.389 787.414 282.96 787.45 290.549C787.487 298.102 787.505 305.655 787.505 313.207C787.505 314.711 786.754 315.462 785.251 315.462H776.561C775.058 315.462 774.306 314.711 774.306 313.207C774.306 307.671 774.325 302.135 774.361 296.599C774.398 291.062 774.416 285.526 774.416 279.99Z" fill="#CE2B2B"/>
<path d="M760.998 302.813C761.511 302.813 761.896 302.978 762.153 303.308C762.446 303.638 762.684 304.005 762.867 304.408C763.014 304.701 763.307 305.416 763.747 306.553C764.187 307.689 764.591 308.808 764.957 309.908C765.361 311.007 765.562 311.667 765.562 311.887C765.562 312.694 764.921 313.391 763.637 313.977C762.391 314.564 760.888 315.041 759.128 315.407C757.368 315.774 755.7 316.03 754.123 316.177C752.547 316.36 751.428 316.452 750.768 316.452C743.032 316.452 737.001 314.161 732.675 309.578C728.348 304.995 726.185 298.89 726.185 291.264C726.185 286.168 727.175 281.585 729.155 277.515C731.172 273.445 734.068 270.219 737.844 267.836C741.621 265.453 746.149 264.261 751.428 264.261C753.482 264.261 755.7 264.499 758.083 264.976C760.466 265.416 762.556 266.131 764.352 267.121C764.719 267.304 765.012 267.524 765.232 267.781C765.489 268.001 765.617 268.331 765.617 268.771C765.617 269.137 765.526 269.504 765.342 269.871L762.812 276.25C762.409 277.277 761.768 277.79 760.888 277.79C760.521 277.79 760.118 277.698 759.678 277.515C758.468 277.112 757.258 276.782 756.048 276.525C754.838 276.232 753.592 276.085 752.308 276.085C747.872 276.085 744.572 277.478 742.409 280.265C740.283 283.051 739.219 286.516 739.219 290.659C739.219 294.655 740.228 298.029 742.244 300.778C744.297 303.491 747.469 304.848 751.758 304.848C753.152 304.848 754.49 304.683 755.773 304.353C757.056 304.023 758.339 303.62 759.623 303.143C759.843 303.07 760.063 302.996 760.283 302.923C760.503 302.85 760.741 302.813 760.998 302.813Z" fill="#CE2B2B"/>
<path d="M685.653 316.507C680.887 316.507 676.891 315.371 673.664 313.097C670.438 310.824 668 307.818 666.35 304.078C664.737 300.302 663.93 296.214 663.93 291.814V290.934C664.003 286.314 664.957 281.97 666.79 277.9C668.66 273.83 671.354 270.549 674.874 268.056C678.394 265.526 682.647 264.261 687.633 264.261C690.713 264.261 693.573 264.848 696.213 266.021C698.889 267.158 701.382 268.716 703.692 270.696C703.949 270.952 704.169 271.081 704.352 271.081C704.792 271.081 704.994 270.622 704.957 269.706C704.957 268.789 705.085 267.872 705.342 266.956C705.635 266.039 706.368 265.581 707.542 265.581H715.296C716.799 265.581 717.551 266.333 717.551 267.836C717.551 269.412 717.533 270.989 717.496 272.565C717.496 274.142 717.496 275.719 717.496 277.295C717.496 281.328 717.514 285.379 717.551 289.449C717.624 293.519 717.679 297.57 717.716 301.603C717.753 303.51 717.789 305.435 717.826 307.378C717.899 309.284 717.936 311.209 717.936 313.152C717.936 314.692 717.184 315.462 715.681 315.462H707.047C706.057 315.462 705.415 315.151 705.122 314.527C704.829 313.867 704.7 313.097 704.737 312.217C704.774 311.337 704.774 310.549 704.737 309.853C704.737 309.743 704.719 309.559 704.682 309.303C704.645 309.046 704.535 308.918 704.352 308.918C704.205 308.918 704.059 308.973 703.912 309.083C703.802 309.193 703.692 309.284 703.582 309.358C701.016 311.521 698.247 313.262 695.278 314.582C692.308 315.865 689.1 316.507 685.653 316.507ZM691.263 304.793C693.866 304.793 696.268 304.261 698.467 303.198C700.704 302.098 702.445 300.375 703.692 298.029C703.765 297.882 703.93 297.515 704.187 296.929C704.48 296.305 704.627 295.92 704.627 295.774C704.627 294.49 704.609 293.207 704.572 291.924C704.572 290.641 704.572 289.376 704.572 288.129C704.572 287.543 704.59 286.901 704.627 286.204C704.664 285.471 704.645 284.83 704.572 284.28C704.535 284.023 704.389 283.638 704.132 283.125C703.912 282.611 703.747 282.245 703.637 282.025C702.354 279.715 700.539 277.992 698.192 276.855C695.846 275.719 693.389 275.15 690.823 275.15C688.11 275.15 685.727 275.829 683.674 277.185C681.62 278.542 680.007 280.338 678.834 282.575C677.697 284.775 677.129 287.194 677.129 289.834C677.129 292.474 677.734 294.93 678.944 297.204C680.154 299.477 681.822 301.31 683.949 302.703C686.112 304.096 688.55 304.793 691.263 304.793Z" fill="#CE2B2B"/>
<path d="M653.206 302.813C653.719 302.813 654.104 302.978 654.361 303.308C654.654 303.638 654.892 304.005 655.076 304.408C655.222 304.701 655.516 305.416 655.956 306.553C656.396 307.689 656.799 308.808 657.166 309.908C657.569 311.007 657.771 311.667 657.771 311.887C657.771 312.694 657.129 313.391 655.846 313.977C654.599 314.564 653.096 315.041 651.336 315.407C649.576 315.774 647.908 316.03 646.331 316.177C644.755 316.36 643.637 316.452 642.977 316.452C635.241 316.452 629.209 314.161 624.883 309.578C620.557 304.995 618.394 298.89 618.394 291.264C618.394 286.168 619.383 281.585 621.363 277.515C623.38 273.445 626.276 270.219 630.053 267.836C633.829 265.453 638.357 264.261 643.637 264.261C645.69 264.261 647.908 264.499 650.291 264.976C652.674 265.416 654.764 266.131 656.561 267.121C656.927 267.304 657.221 267.524 657.441 267.781C657.697 268.001 657.826 268.331 657.826 268.771C657.826 269.137 657.734 269.504 657.551 269.871L655.021 276.25C654.617 277.277 653.976 277.79 653.096 277.79C652.729 277.79 652.326 277.698 651.886 277.515C650.676 277.112 649.466 276.782 648.256 276.525C647.046 276.232 645.8 276.085 644.517 276.085C640.08 276.085 636.78 277.478 634.617 280.265C632.491 283.051 631.428 286.516 631.428 290.659C631.428 294.655 632.436 298.029 634.452 300.778C636.505 303.491 639.677 304.848 643.967 304.848C645.36 304.848 646.698 304.683 647.981 304.353C649.265 304.023 650.548 303.62 651.831 303.143C652.051 303.07 652.271 302.996 652.491 302.923C652.711 302.85 652.949 302.813 653.206 302.813Z" fill="#CE2B2B"/>
<path d="M595.625 246.827C595.625 244.811 596.377 243.088 597.88 241.658C599.383 240.191 601.143 239.458 603.16 239.458C605.213 239.458 607.009 240.21 608.549 241.713C610.126 243.179 610.914 244.958 610.914 247.047C610.914 249.064 610.162 250.824 608.659 252.327C607.193 253.794 605.433 254.527 603.38 254.527C601.29 254.527 599.475 253.775 597.935 252.272C596.395 250.732 595.625 248.917 595.625 246.827ZM596.45 279.99V267.836C596.45 266.333 597.202 265.581 598.705 265.581H607.174C608.678 265.581 609.429 266.333 609.429 267.836C609.429 275.389 609.448 282.96 609.484 290.549C609.521 298.102 609.539 305.655 609.539 313.207C609.539 314.711 608.788 315.462 607.284 315.462H598.595C597.092 315.462 596.34 314.711 596.34 313.207C596.34 307.671 596.359 302.135 596.395 296.599C596.432 291.062 596.45 285.526 596.45 279.99Z" fill="#CE2B2B"/>
<path d="M546.899 265.581C548.256 265.581 549.007 266.241 549.154 267.561C549.264 268.294 549.356 269.027 549.429 269.761C549.502 270.494 549.576 271.227 549.649 271.96C549.649 272.034 549.686 272.254 549.759 272.62C549.832 272.95 549.96 273.115 550.144 273.115C550.327 273.115 550.492 273.005 550.639 272.785C550.822 272.565 550.95 272.4 551.024 272.29C553.224 269.467 555.9 267.432 559.053 266.186C562.206 264.939 565.524 264.316 569.007 264.316C571.867 264.316 574.489 264.921 576.872 266.131C579.292 267.304 581.235 268.991 582.701 271.191C584.168 273.354 584.901 275.939 584.901 278.945C584.901 284.628 584.956 290.329 585.066 296.049C585.213 301.768 585.286 307.469 585.286 313.152C585.286 314.692 584.534 315.462 583.031 315.462H574.397C573.004 315.462 572.252 314.711 572.142 313.207C572.032 311.631 571.995 310.054 572.032 308.478C572.069 306.864 572.069 305.27 572.032 303.693C571.995 300.32 571.977 296.965 571.977 293.629C571.977 290.292 571.977 286.956 571.977 283.62C571.977 281.016 571.226 279.073 569.722 277.79C568.219 276.47 566.221 275.81 563.728 275.81C560.611 275.81 558.045 276.763 556.028 278.67C554.049 280.576 552.564 282.923 551.574 285.709C550.62 288.496 550.144 291.227 550.144 293.904C550.144 297.13 550.125 300.357 550.089 303.583C550.052 306.773 550.015 309.981 549.979 313.207C549.979 314.711 549.227 315.462 547.724 315.462H539.09C537.586 315.462 536.835 314.692 536.835 313.152C536.835 311.099 536.853 309.064 536.89 307.048C536.963 304.995 537.018 302.96 537.055 300.943C537.165 292.364 537.22 283.785 537.22 275.205V267.836C537.22 266.333 537.971 265.581 539.475 265.581H546.899Z" fill="#CE2B2B"/>
<path d="M516.596 315.462C515.313 315.462 514.562 314.802 514.342 313.482C514.232 312.749 514.122 312.016 514.012 311.282C513.938 310.513 513.865 309.761 513.792 309.028C513.792 308.918 513.755 308.734 513.682 308.478C513.608 308.184 513.48 308.038 513.297 308.038C513.15 308.038 512.985 308.129 512.802 308.313C512.655 308.459 512.545 308.588 512.472 308.698C510.052 311.484 507.101 313.482 503.617 314.692C500.171 315.902 496.633 316.507 493.003 316.507C490.033 316.507 487.155 315.994 484.369 314.967C481.619 313.904 479.346 312.291 477.549 310.128C475.79 307.964 474.91 305.215 474.91 301.878C474.91 297.625 474.928 293.372 474.965 289.119C475.038 284.83 475.075 280.577 475.075 276.36V267.836C475.075 266.333 475.826 265.581 477.329 265.581H485.799C487.302 265.581 488.054 266.333 488.054 267.836V276.47C488.054 279.917 488.035 283.381 487.999 286.864C487.962 290.347 487.962 293.83 487.999 297.314C488.072 300.21 489.007 302.263 490.803 303.473C492.637 304.646 494.873 305.233 497.513 305.233C500.813 305.233 503.617 304.353 505.927 302.593C508.237 300.833 509.997 298.578 511.207 295.829C512.453 293.042 513.077 290.146 513.077 287.139V267.836C513.077 266.333 513.828 265.581 515.332 265.581H523.746C525.249 265.581 526.001 266.333 526.001 267.836C526.001 269.412 525.982 270.989 525.946 272.565C525.946 274.142 525.946 275.719 525.946 277.295C525.946 281.328 525.964 285.379 526.001 289.449C526.074 293.519 526.129 297.57 526.166 301.603C526.202 303.51 526.239 305.435 526.276 307.378C526.349 309.284 526.386 311.209 526.386 313.152C526.386 314.692 525.634 315.462 524.131 315.462H516.596Z" fill="#CE2B2B"/>
<path d="M383.122 265.581H390.601C391.848 265.581 392.581 266.241 392.801 267.561C392.874 267.854 392.948 268.441 393.021 269.321C393.094 270.201 393.186 271.026 393.296 271.796C393.442 272.565 393.626 272.95 393.846 272.95C394.029 272.95 394.194 272.877 394.341 272.73C394.487 272.547 394.597 272.4 394.671 272.29C397.091 269.394 399.859 267.341 402.975 266.131C406.128 264.884 409.556 264.261 413.259 264.261C416.266 264.261 419.181 264.811 422.004 265.911C424.863 267.011 426.972 269.027 428.328 271.961C428.401 272.071 428.475 272.217 428.548 272.4C428.621 272.584 428.75 272.675 428.933 272.675C429.08 272.675 429.208 272.62 429.318 272.51C429.428 272.364 429.52 272.254 429.593 272.18C431.866 269.687 434.506 267.763 437.512 266.406C440.519 265.013 443.709 264.316 447.082 264.316C451.555 264.316 455.404 265.563 458.631 268.056C461.894 270.512 463.525 274.142 463.525 278.945C463.525 282.795 463.562 286.663 463.635 290.549C463.709 294.399 463.782 298.248 463.855 302.098C463.929 303.931 464.002 305.783 464.075 307.653C464.185 309.486 464.24 311.319 464.24 313.152C464.24 314.692 463.489 315.462 461.986 315.462H453.406C452.6 315.462 452.031 315.279 451.701 314.912C451.408 314.546 451.225 313.996 451.151 313.262C451.005 311.722 450.95 310.164 450.986 308.588C451.023 306.974 451.005 305.398 450.931 303.858C450.895 300.558 450.84 297.259 450.766 293.959C450.73 290.659 450.711 287.359 450.711 284.06C450.711 281.493 450.088 279.495 448.842 278.065C447.632 276.598 445.707 275.865 443.067 275.865C440.024 275.865 437.439 276.8 435.313 278.67C433.186 280.54 431.555 282.868 430.418 285.654C429.318 288.404 428.768 291.117 428.768 293.794C428.768 297.02 428.786 300.247 428.823 303.473C428.86 306.699 428.878 309.944 428.878 313.207C428.878 314.711 428.126 315.462 426.623 315.462H417.934C416.431 315.462 415.679 314.711 415.679 313.207C415.679 308.331 415.716 303.473 415.789 298.633C415.862 293.794 415.862 288.936 415.789 284.06C415.752 281.603 415.129 279.623 413.919 278.12C412.746 276.617 410.858 275.865 408.255 275.865C405.138 275.865 402.517 276.8 400.39 278.67C398.264 280.503 396.651 282.813 395.551 285.599C394.451 288.386 393.864 291.154 393.791 293.904C393.754 296.14 393.717 298.377 393.681 300.613C393.644 302.85 393.589 305.105 393.516 307.378C393.516 308.331 393.516 309.321 393.516 310.348C393.552 311.337 393.516 312.309 393.406 313.262C393.332 313.996 393.131 314.546 392.801 314.912C392.508 315.279 391.958 315.462 391.151 315.462H382.517C381.013 315.462 380.262 314.674 380.262 313.097C380.262 311.191 380.299 309.303 380.372 307.433C380.482 305.526 380.555 303.62 380.592 301.713C380.812 293.684 380.922 285.673 380.922 277.68C380.922 276.177 380.885 274.527 380.812 272.73C380.738 270.934 380.757 269.302 380.867 267.836C380.977 266.333 381.728 265.581 383.122 265.581Z" fill="#CE2B2B"/>
<path d="M320.536 290.769C320.536 285.673 321.618 281.126 323.781 277.13C325.981 273.134 329.043 269.981 332.966 267.671C336.889 265.324 341.417 264.151 346.549 264.151C351.609 264.151 356.027 265.306 359.803 267.616C363.58 269.889 366.513 273.005 368.603 276.965C370.729 280.925 371.793 285.379 371.793 290.329C371.793 295.425 370.748 299.953 368.658 303.913C366.568 307.836 363.617 310.916 359.803 313.152C356.027 315.389 351.536 316.507 346.33 316.507C341.16 316.507 336.632 315.444 332.746 313.317C328.896 311.154 325.889 308.148 323.726 304.298C321.6 300.448 320.536 295.939 320.536 290.769ZM346.275 275.26C343.488 275.26 341.16 276.012 339.29 277.515C337.42 278.982 336.009 280.87 335.055 283.18C334.102 285.489 333.625 287.909 333.625 290.439C333.625 292.822 334.12 295.114 335.11 297.314C336.137 299.513 337.585 301.31 339.455 302.703C341.325 304.096 343.543 304.793 346.11 304.793C348.896 304.793 351.206 304.096 353.039 302.703C354.909 301.273 356.302 299.44 357.219 297.204C358.172 294.967 358.649 292.584 358.649 290.054C358.649 287.598 358.172 285.251 357.219 283.015C356.302 280.742 354.927 278.89 353.094 277.46C351.261 275.994 348.988 275.26 346.275 275.26Z" fill="#CE2B2B"/>
<path d="M309.812 302.813C310.326 302.813 310.711 302.978 310.967 303.308C311.261 303.638 311.499 304.005 311.682 304.408C311.829 304.701 312.122 305.416 312.562 306.553C313.002 307.689 313.405 308.808 313.772 309.908C314.175 311.007 314.377 311.667 314.377 311.887C314.377 312.694 313.735 313.391 312.452 313.977C311.206 314.564 309.702 315.041 307.942 315.407C306.183 315.774 304.514 316.03 302.938 316.177C301.361 316.36 300.243 316.452 299.583 316.452C291.847 316.452 285.816 314.161 281.489 309.578C277.163 304.995 275 298.89 275 291.264C275 286.168 275.99 281.585 277.97 277.515C279.986 273.445 282.883 270.219 286.659 267.836C290.435 265.453 294.963 264.261 300.243 264.261C302.296 264.261 304.514 264.499 306.898 264.976C309.281 265.416 311.371 266.131 313.167 267.121C313.534 267.304 313.827 267.524 314.047 267.781C314.304 268.001 314.432 268.331 314.432 268.771C314.432 269.137 314.34 269.504 314.157 269.871L311.627 276.25C311.224 277.277 310.582 277.79 309.702 277.79C309.336 277.79 308.932 277.698 308.492 277.515C307.283 277.112 306.073 276.782 304.863 276.525C303.653 276.232 302.406 276.085 301.123 276.085C296.687 276.085 293.387 277.478 291.224 280.265C289.097 283.051 288.034 286.516 288.034 290.659C288.034 294.655 289.042 298.029 291.059 300.778C293.112 303.491 296.283 304.848 300.573 304.848C301.966 304.848 303.304 304.683 304.588 304.353C305.871 304.023 307.154 303.62 308.437 303.143C308.657 303.07 308.877 302.996 309.097 302.923C309.317 302.85 309.556 302.813 309.812 302.813Z" fill="#CE2B2B"/>
<path d="M830.729 93.7058V65.7893H846.238V39.7339H883.46V65.7893H906V93.7058H830.729ZM846.238 102.184H883.46V145.196C883.46 149.056 884.425 151.882 886.355 153.675C888.423 155.467 891.663 156.363 896.074 156.363C898.28 156.363 900.21 156.294 901.864 156.156C903.519 155.88 904.897 155.605 906 155.329V182.832C902.692 183.935 899.176 184.831 895.454 185.52C891.87 186.347 888.216 186.761 884.494 186.761C871.811 186.761 862.23 184.073 855.75 178.696C849.409 173.182 846.238 163.394 846.238 149.332V102.184Z" fill="white"/>
<path d="M708.347 184.693C704.353 184.693 702.355 182.656 702.355 178.583C702.355 174.353 702.394 170.124 702.473 165.894C702.629 161.586 702.747 157.278 702.825 152.97C702.982 144.04 703.099 135.111 703.178 126.181C703.256 117.252 703.295 108.283 703.295 99.275C703.295 89.9539 703.256 80.6327 703.178 71.3115C703.099 61.9121 702.982 52.5517 702.825 43.2306C702.747 38.7658 702.629 34.3402 702.473 29.9538C702.316 25.489 702.238 21.0243 702.238 16.5595C702.238 12.4081 704.274 10.3323 708.347 10.3323H736.428C740.423 10.3323 742.421 12.3297 742.421 16.3245L742.773 80.711C742.773 80.946 742.812 81.5727 742.891 82.5909C742.969 83.6092 743.282 84.1184 743.831 84.1184C744.301 84.1184 744.81 83.8442 745.358 83.2959C745.906 82.7476 746.298 82.3168 746.533 82.0035C750.998 77.0687 755.854 73.3481 761.102 70.8416C766.429 68.335 772.46 67.0818 779.196 67.0818C785.697 67.0818 791.846 68.4134 797.643 71.0766C803.517 73.6614 808.256 77.4604 811.859 82.4734C815.541 87.4082 817.382 93.4004 817.382 100.45C817.382 109.223 817.421 118.035 817.499 126.886C817.577 135.659 817.695 144.471 817.852 153.322C817.93 157.552 818.008 161.782 818.087 166.011C818.243 170.241 818.322 174.432 818.322 178.583C818.322 182.656 816.285 184.693 812.212 184.693H783.661C779.666 184.693 777.669 182.696 777.669 178.701L777.316 116.194C777.316 112.199 776.415 109.145 774.614 107.03C772.891 104.836 769.914 103.74 765.684 103.74C760.828 103.74 756.912 105.15 753.935 107.97C751.037 110.789 748.804 114.393 747.238 118.779C745.75 123.165 744.731 127.669 744.183 132.291C743.713 136.912 743.478 141.064 743.478 144.745C743.478 148.74 743.478 152.735 743.478 156.729C743.478 160.724 743.439 164.719 743.361 168.714C743.361 170.359 743.361 172.043 743.361 173.766C743.439 175.411 743.4 177.056 743.243 178.701C743.008 182.696 741.011 184.693 737.251 184.693H708.347Z" fill="white"/>
<path d="M619.052 230.75C610.045 230.75 601.389 229.262 593.086 226.286C584.783 223.309 577.381 218.609 570.88 212.186C570.332 211.56 569.823 210.933 569.353 210.307C568.961 209.68 568.765 208.936 568.765 208.074C568.765 207.134 569.548 205.528 571.115 203.257C572.682 200.985 574.366 198.714 576.167 196.442C577.969 194.171 579.222 192.604 579.927 191.743C580.554 190.959 581.18 190.293 581.807 189.745C582.512 189.275 583.413 189.04 584.509 189.04C585.136 189.04 585.723 189.119 586.272 189.275C586.898 189.51 587.486 189.745 588.034 189.98C592.107 191.86 595.749 193.192 598.961 193.975C602.172 194.758 606.05 195.15 610.593 195.15C614.901 195.15 619.366 194.445 623.987 193.035C628.687 191.703 632.642 189.471 635.854 186.338C639.065 183.205 640.671 179.053 640.671 173.884C640.671 173.57 640.671 173.139 640.671 172.591C640.671 172.043 640.593 171.69 640.436 171.534C640.358 171.534 639.144 172.591 636.794 174.706C634.522 176.821 631.193 178.936 626.807 181.051C622.499 183.166 617.172 184.223 610.828 184.223C600.253 184.223 591.246 181.599 583.804 176.351C576.441 171.025 570.802 164.092 566.885 155.555C562.969 146.938 561.01 137.695 561.01 127.826C561.01 120.463 562.107 113.218 564.3 106.09C566.572 98.8834 569.862 92.3429 574.17 86.4682C578.556 80.5936 583.883 75.933 590.149 72.4865C596.494 68.9617 603.739 67.1993 611.885 67.1993C617.838 67.1993 623.517 68.2176 628.922 70.2541C634.405 72.2123 639.3 75.2672 643.609 79.4186C643.844 79.6536 644.118 79.9278 644.431 80.2411C644.823 80.4761 645.175 80.5936 645.488 80.5936C646.507 80.5936 647.133 79.7319 647.368 78.0087C647.682 76.2854 648.23 74.6014 649.013 72.9565C649.797 71.2332 651.441 70.3716 653.948 70.3716H674.862C678.935 70.3716 680.972 72.4082 680.972 76.4813C680.972 80.8677 680.932 85.2933 680.854 89.7581C680.854 94.2228 680.854 98.6484 680.854 103.035C680.854 115.333 680.972 127.669 681.207 140.045C681.52 152.343 681.676 164.68 681.676 177.056C681.676 185.202 679.836 192.565 676.154 199.145C672.551 205.803 667.695 211.481 661.585 216.181C655.554 220.881 648.817 224.484 641.376 226.991C634.013 229.497 626.572 230.75 619.052 230.75ZM621.52 149.562C625.123 149.562 628.569 148.701 631.859 146.977C635.149 145.176 637.734 142.709 639.614 139.575V110.672C637.499 107.539 634.679 105.189 631.154 103.622C627.629 102.056 624.026 101.272 620.345 101.272C616.193 101.272 612.669 102.487 609.77 104.915C606.872 107.343 604.679 110.398 603.191 114.079C601.702 117.682 600.958 121.364 600.958 125.124C600.958 131.233 602.682 136.834 606.128 141.925C609.653 147.017 614.783 149.562 621.52 149.562Z" fill="white"/>
<path d="M522.003 47.9303C515.58 47.9303 510.292 45.6588 506.141 41.1157C502.068 36.5726 500.031 31.207 500.031 25.019C500.031 19.1444 502.264 14.0138 506.728 9.62738C511.271 5.24094 516.441 3.04773 522.238 3.04773C528.347 3.04773 533.517 5.35844 537.747 9.97986C542.055 14.6013 544.209 19.9277 544.209 25.959C544.209 31.912 541.976 37.0817 537.512 41.4682C533.125 45.7763 527.956 47.9303 522.003 47.9303ZM502.029 101.977V76.3638C502.029 72.369 504.026 70.3716 508.021 70.3716H533.752C537.747 70.3716 539.744 72.369 539.744 76.3638C539.744 93.3612 539.783 110.398 539.862 127.474C539.94 144.471 539.979 161.508 539.979 178.583C539.979 182.656 537.943 184.693 533.869 184.693H507.786C503.713 184.693 501.676 182.656 501.676 178.583C501.676 165.816 501.715 153.048 501.794 140.28C501.95 127.513 502.029 114.745 502.029 101.977Z" fill="white"/>
<path d="M450.695 108.354L432.219 137.59L424.504 132.514C418.142 128.319 413.54 123.784 410.698 118.912C407.856 114.039 406.434 107.677 406.434 99.8268C406.434 88.5925 409.75 80.2683 416.383 74.8542C423.015 69.3048 433.911 66.4623 449.07 66.327C454.755 66.327 459.966 66.5977 464.704 67.1391C469.576 67.5452 473.434 68.0189 476.276 68.5603C479.254 69.1017 480.743 69.3724 480.743 69.3724L477.698 96.3753C477.698 96.3753 476.682 96.2399 474.652 95.9692C472.622 95.6985 469.982 95.4278 466.734 95.1571C463.621 94.7511 460.372 94.548 456.989 94.548C452.116 94.548 448.597 94.9541 446.431 95.7662C444.265 96.5783 443.183 98.1349 443.183 100.436C443.183 101.789 443.589 102.94 444.401 103.887C445.213 104.699 446.499 105.647 448.258 106.73L450.695 108.354ZM440.746 143.072L459.425 114.039L466.125 118.302C472.622 122.498 477.291 127.033 480.134 131.905C482.976 136.643 484.397 142.801 484.397 150.381C484.397 162.427 480.946 171.496 474.043 177.587C467.14 183.542 455.838 186.588 440.137 186.723C433.234 186.723 426.873 186.317 421.052 185.505C415.368 184.828 410.157 183.881 405.419 182.663L408.465 155.051C408.465 155.051 410.969 155.457 415.977 156.269C420.985 156.946 427.617 157.284 435.874 157.284C443.318 157.284 447.04 155.051 447.04 150.584C447.04 148.283 445.348 146.05 441.964 143.884L440.746 143.072Z" fill="white"/>
<path d="M308.069 70.3716C310.262 70.3716 311.868 71.1941 312.886 72.839C313.904 74.4839 314.609 76.4029 315.001 78.5962C315.471 80.711 315.862 82.5909 316.176 84.2359C316.489 85.8808 317.076 86.7032 317.938 86.7032C318.408 86.7032 318.8 86.5074 319.113 86.1158C319.505 85.7241 319.818 85.3716 320.053 85.0583C324.596 79.262 329.57 74.8364 334.975 71.7815C340.458 68.7267 346.92 67.1993 354.361 67.1993C360.862 67.1993 366.815 68.57 372.22 71.3116C377.625 74.0531 381.933 77.9304 385.144 82.9434C388.434 87.8782 390.079 93.7137 390.079 100.45C390.079 109.223 390.118 118.035 390.197 126.886C390.275 135.659 390.392 144.471 390.549 153.322C390.627 157.552 390.706 161.782 390.784 166.011C390.941 170.241 391.019 174.432 391.019 178.583C391.019 182.656 388.983 184.693 384.909 184.693H356.358C352.364 184.693 350.366 182.696 350.366 178.701L350.014 116.194C350.014 112.199 349.113 109.145 347.311 107.03C345.588 104.836 342.612 103.74 338.382 103.74C332.664 103.74 328.238 105.698 325.105 109.614C321.972 113.531 319.74 118.583 318.408 124.771C317.076 130.959 316.293 137.5 316.058 144.393C315.901 151.286 315.901 157.826 316.058 164.014C316.215 170.124 316.176 175.019 315.941 178.701C315.706 182.696 313.708 184.693 309.948 184.693H281.045C277.05 184.693 275.053 182.656 275.053 178.583C275.053 174.51 275.092 170.476 275.17 166.481C275.327 162.408 275.445 158.335 275.523 154.262C275.679 145.724 275.797 137.225 275.875 128.766C275.954 120.228 275.993 111.69 275.993 103.152C275.993 98.7659 275.914 94.3403 275.758 89.8755C275.679 85.3325 275.719 80.8677 275.875 76.4813C275.954 72.4082 277.99 70.3716 281.985 70.3716H308.069Z" fill="white"/>
<path fill-rule="evenodd" clip-rule="evenodd" d="M180 54.5543C185.787 55.4233 190.721 57.7192 194.805 61.4421C200.209 66.2201 204.204 72.2123 206.789 79.4186C209.452 86.6249 210.784 93.8312 210.784 101.037C210.784 106.207 210.118 111.494 208.786 116.899C207.455 122.304 205.379 127.356 202.559 132.056C199.818 136.677 196.254 140.437 191.867 143.335C187.481 146.155 182.272 147.565 176.241 147.565C168.016 147.565 161.045 145.215 155.327 140.515C149.609 135.737 145.261 129.745 142.285 122.539C139.308 115.333 137.82 108.048 137.82 100.685C137.82 93.557 139.191 86.4291 141.932 79.3011C144.752 72.1732 148.865 66.2201 154.269 61.4421C157.42 58.6518 160.984 56.6632 164.961 55.4761V15.8541C156.675 16.7439 148.881 18.898 141.58 22.3167C131.711 26.9381 123.094 33.2436 115.731 41.2332C108.447 49.2227 102.768 58.3872 98.6948 68.7267C94.7 78.9878 92.7026 89.7581 92.7026 101.037C92.7026 112.552 94.7 123.44 98.6948 133.701C102.768 143.962 108.447 153.087 115.731 161.077C123.094 168.988 131.711 175.215 141.58 179.758C151.528 184.223 162.416 186.455 174.243 186.455C185.836 186.455 196.606 184.223 206.554 179.758C216.58 175.215 225.314 169.027 232.755 161.194C240.196 153.283 245.993 144.236 250.144 134.053C254.374 123.792 256.489 112.983 256.489 101.625C256.489 90.1889 254.374 79.3011 250.144 68.9617C245.993 58.6222 240.157 49.4186 232.638 41.3507C225.196 33.2828 216.463 26.9381 206.437 22.3167C198.182 18.5119 189.37 16.2733 180 15.601V54.5543Z" fill="white"/>
<defs>
<linearGradient id="paint0_linear_11_245" x1="187.52" y1="97.2777" x2="-62.5066" y2="97.2776" gradientUnits="userSpaceOnUse">
<stop stop-color="#DB2D2D"/>
<stop offset="1" stop-color="#751818"/>
</linearGradient>
</defs>
</svg>
